<svg class="svg-icon" style="width: 1em;height: 1em;vertical-align: middle;fill: currentColor;overflow: hidden;" viewBox="0 0 1024 1024" version="1.1" xmlns="http://www.w3.org/2000/svg"><path d="M512 0C230.4 0 0 230.4 0 512s230.4 512 512 512 512-230.4 512-512S793.6 0 512 0z m-140.8 768H265.6V425.6h105.6V768zM316.8 380.8c-32 0-60.8-28.8-60.8-64C256 284.8 284.8 256 316.8 256c35.2 0 60.8 28.8 60.8 60.8 0 35.2-25.6 64-60.8 64zM768 768h-105.6v-166.4c0-38.4 0-89.6-54.4-89.6s-64 41.6-64 86.4V768h-105.6V425.6h102.4v48c12.8-25.6 48-54.4 99.2-54.4 108.8 0 128 70.4 128 163.2V768z" fill="#444444" /></svg>